<svg width="16" height="16" fill="none" xmlns="http://www.w3.org/2000/svg"><path d="M15.993 5.527c0 .885.018 1.771-.003 2.656-.043 1.832-.65 3.463-1.806 4.886a7.87 7.87 0 01-2.4 1.981 7.73 7.73 0 01-2.945.907c-2.136.207-4.066-.335-5.76-1.654C1.7 13.233.78 11.845.3 10.165a7.691 7.691 0 01-.294-2.4C.075 5.83.744 4.13 2.027 2.683a7.88 7.88 0 013.93-2.42A7.623 7.623 0 017.931.002L13.323 0a2.669 2.669 0 012.671 2.694v2.832h-.001z" fill="url(#paint0_linear_303_2)"/><ellipse cx="8" cy="8.004" rx="5.92" ry="5.922" fill="#404040"/><path fill-rule="evenodd" clip-rule="evenodd" d="M14.422 9.068a.877.877 0 01-.283.238c-.212.121-.36.28-.397.528a.847.847 0 00-.01.103c-.002.126.058.194.182.19a5.89 5.89 0 00.352-.028l.14-.013.107-.01a5.345 5.345 0 00-.063.098c-.033.051-.063.098-.096.143-.187.256-.375.51-.565.765a.61.61 0 01-.304.195 7.329 7.329 0 01-.193.066 4.24 4.24 0 00-.327.117.373.373 0 00-.245.376.129.129 0 00.078.136l.246.087.19.067.127.042a.578.578 0 01-.072.073l-.38.26-.522.357c-.146.1-.3.108-.466.081a4.005 4.005 0 00-.325-.037.255.255 0 00-.132.021 1.632 1.632 0 00-.266.172.19.19 0 000 .314c.07.057.146.108.222.16.037.024.074.05.11.075l.078.057a.131.131 0 00-.008.011c-.004.006-.006.01-.01.01a8.17 8.17 0 01-1.245.343c-.104.018-.19-.018-.277-.055l-.037-.016a5.014 5.014 0 00-.473-.186c-.179-.052-.323.02-.423.176a.106.106 0 00-.005.125 18.31 18.31 0 01.283.515.116.116 0 01-.033.01l-.34-.012a68.8 68.8 0 00-.745-.027c-.174-.005-.3-.094-.416-.208a7.936 7.936 0 00-.284-.267l-.072-.066a.492.492 0 00-.409-.118.151.151 0 00-.15.172c.013.081.03.162.054.24l.025.093c.016.056.031.113.04.17.017.098-.016.124-.102.08a67.898 67.898 0 01-1.04-.526c-.118-.061-.178-.166-.24-.291l-.06-.126a6.315 6.315 0 00-.123-.248c-.105-.197-.277-.26-.49-.236a.15.15 0 00-.145.128 3.786 3.786 0 00-.037.267l-.006.057a6.257 6.257 0 00-.026.27 30.1 30.1 0 00-.217-.228l-.112-.117a18.09 18.09 0 01-.348-.372 2.75 2.75 0 01-.238-.3.41.41 0 01-.053-.173c-.007-.056-.01-.112-.014-.168-.005-.08-.01-.16-.024-.237-.035-.183-.114-.345-.287-.44-.1-.053-.156-.042-.237.037-.129.128-.199.292-.267.457a4.84 4.84 0 00-.033.082l-.067-.135a4.33 4.33 0 01-.093-.191 58.086 58.086 0 01-.258-.58l-.053-.122c-.081-.18-.068-.368-.014-.554l.03-.104c.023-.07.045-.14.057-.211.037-.212-.061-.38-.206-.518-.075-.072-.17-.038-.245.012a2.676 2.676 0 00-.253.198c-.04.035-.078.072-.12.114a7.377 7.377 0 01-.06.058.886.886 0 01-.015-.092l-.036-.942a1.97 1.97 0 01-.004-.231c.013-.166.112-.292.21-.416l.003-.005c.022-.03.046-.06.07-.087.153-.154.155-.345.123-.539a.22.22 0 00-.3-.187c-.108.034-.213.077-.318.119l-.138.055-.084.031.051-.164c.041-.131.08-.255.122-.378.034-.099.07-.197.105-.295.043-.117.086-.234.125-.352a.516.516 0 01.234-.291c.097-.055.191-.116.28-.183.182-.144.223-.352.22-.566-.002-.086-.057-.125-.147-.119-.099.007-.198.017-.297.027a20.03 20.03 0 01-.306.026l.062-.11c.032-.058.062-.111.098-.16.179-.251.363-.5.552-.744.107-.138.263-.193.43-.22.188-.031.37-.076.493-.236.056-.07.1-.15.13-.234a.148.148 0 00-.034-.132.779.779 0 00-.218-.128 2.389 2.389 0 00-.24-.075 5.713 5.713 0 01-.157-.048l-.037-.013.117-.08.217-.147.243-.152c.161-.1.321-.2.479-.307a.426.426 0 01.286-.06c.161.016.323.025.486.025.21-.007.362-.129.469-.302a.125.125 0 00-.014-.12 8.961 8.961 0 00-.32-.264l-.11-.089-.032-.025a1.964 1.964 0 01-.022-.015 60.523 60.523 0 01.405-.104l.171-.045c.196-.05.39-.101.585-.157a.522.522 0 01.394.04l.112.058c.071.038.142.075.217.106.204.085.392.029.562-.094.08-.057.065-.146.044-.228-.03-.12-.107-.21-.185-.3a2.85 2.85 0 01-.11-.13 1.987 1.987 0 00-.032-.041l.008-.02.12.013a13.06 13.06 0 01.51.064c.195.026.39.052.584.074a.525.525 0 01.397.251.667.667 0 00.606.32c.165-.001.255-.085.238-.245a3.669 3.669 0 00-.055-.328l-.03-.152-.007-.044a7.72 7.72 0 00-.003-.02l.075.037.13.065.25.128c.147.076.294.152.443.223.232.11.374.298.498.511a.674.674 0 01.082.199.268.268 0 00.16.194c.064.033.13.062.197.086a.246.246 0 00.326-.208l.037-.25.026-.177a.193.193 0 01.007-.024l.007-.025.187.19.212.222c.128.134.257.268.387.4.121.12.192.281.196.45.004.146.004.293.004.439a.15.15 0 00.016.068c.016.03.035.06.058.086.198.212.386.211.566-.022.049-.064.08-.141.112-.219l.04-.096a.99.99 0 00.03-.095c.037.048.07.1.1.152l.025.056c.134.293.268.587.396.884.07.162.042.329-.005.493-.02.066-.039.133-.062.198-.075.213-.004.393.129.556a.206.206 0 00.304.013c.084-.082.167-.164.247-.25.03-.031.059-.066.086-.1l.036-.046.03.02.011.112c.008.07.015.138.02.207l.022.327c.01.155.02.31.032.462.02.257-.077.468-.243.655a.432.432 0 00-.026.03.407.407 0 01-.027.03c-.155.158-.148.348-.107.54.034.16.173.226.325.17.106-.04.213-.077.32-.115l.098-.035.02.023-.06.226c-.056.215-.112.43-.173.644a5.107 5.107 0 00-.013.048.935.935 0 01-.118.299zm-7.7-4.159H4.215l-1.067.854v2.454l1.014.854h1.013V11.1h1.547V4.91zm.48 6.19v-6.19h4.106l1.547 1.548v4.642h-1.547V6.937l-.48-.48v4.642H9.282V6.457h-.534v4.642H7.202z" fill="#fff"/><path fill="#fff" d="M4.694 6.296h.48v1.441h-.48z"/><defs><linearGradient id="paint0_linear_303_2" x1="13.466" y1="2.267" x2="3.2" y2="14.48" gradientUnits="userSpaceOnUse"><stop stop-color="#45CD79"/><stop offset="1" stop-color="#13C1F4"/></linearGradient></defs></svg>