<svg xmlns="http://www.w3.org/2000/svg" viewBox="0 0 340 750"><defs><style>.cls-1,.cls-2{fill:#fff;fill-rule:evenodd}.cls-2{fill:#da4648}</style></defs><g id="Слой_2" data-name="Слой 2"><g id="Слой_1-2" data-name="Слой 1"><path class="cls-1" d="M168.43 591.82c-44.08 0-78.15-6.6-94.53-10.53a181.92 181.92 0 01-27-8.34l21.85 37.21 8.51 116.24c0 13 41.54 23.6 92.77 23.6s92.77-10.56 92.77-23.6l6.77-117.51 20.67-36a182 182 0 01-27.24 8.4c-16.42 3.93-50.49 10.53-94.57 10.53z"/><path class="cls-1" d="M38.77 559c2.91 7.21 57.58 25 129.66 25s126.81-17.85 129.66-25.1l39.82-357a55 55 0 01-9.27 3.84c-9 2.95-21.66 5.58-37.69 7.81-32.36 4.51-75.3 7-120.92 7s-88.56-2.48-120.91-7c-16-2.23-28.71-4.86-37.69-7.81a54.5 54.5 0 01-9.27-3.83"/><path class="cls-1" d="M169.9 166C76.07 166 0 176.47 0 189.38s76.07 23.35 169.9 23.35 169.9-10.45 169.9-23.35S263.74 166 169.9 166zm47.65 35.66c-11.15 0-20.19-2.45-20.19-5.48s9-5.48 20.19-5.48 20.19 2.45 20.19 5.48-9.04 5.5-20.19 5.5z"/><path id="Straw" class="cls-1" d="M201.45 193.78a.91.91 0 00-.15.49c0 2 7.27 3.54 16.25 3.54s16.25-1.58 16.25-3.54l21.2-85.8 84.43-88.85.08-.09c1.79-2-1.84-8.25-7.85-13.59S319.17-1.22 317.15.81L227 95.34z"/><path class="cls-2" d="M287.9 368c.4-3.7.79-7.41 1.21-11.11q2.13-18.84 4.28-37.69a33.12 33.12 0 00.23-4.54 25.75 25.75 0 00-11.51-20.89c-7.29-5.2-18.9-7.49-27.65-6.48-29 2-57.93 3-87 3.16a153.23 153.23 0 00-31.76 3c-22.1 4.22-43.94 12.94-60.45 28.64-17.89 16.91-25.75 40.15-23.8 64.54.69 11.32 4.09 21.79 7.79 32.4a141.48 141.48 0 0043.27 58.29c23.06 16.87 48 27.29 77.11 24.05a100.93 100.93 0 0039.28-13.25c13.2-7.54 23.87-17.44 34.17-28.48 16.06-20 28.38-41.62 32-67.44 1.11-8.09 1.93-16.2 2.83-24.2zm-26.74 38.25a15.78 15.78 0 01-4.36 3.51c-3.17 1.87-5.47 4.14-6.25 7.48a11.2 11.2 0 00-.27 1.38c-.16 1.67.62 2.51 2.39 2.31s3.35-.49 5-.78l2-.35 1.52-.27c-.37.49-.7.95-1 1.38-.53.72-1 1.38-1.54 2q-4.41 5.44-8.82 10.82a10.48 10.48 0 01-4.47 2.93c-.92.37-1.84.72-2.76 1.07-1.58.59-3.15 1.18-4.68 1.87a6.25 6.25 0 00-2.72 2.12 5.4 5.4 0 00-1 3.1 1.57 1.57 0 00.15 1 1.45 1.45 0 00.81.67c1.1.34 2.21.64 3.32.93l2.56.7 1.72.43a9.57 9.57 0 01-1.07 1c-1.83 1.29-3.67 2.56-5.49 3.82l-7.48 5.19a8.94 8.94 0 01-6.43 1.44c-1.46-.15-3-.24-4.43-.27a3.89 3.89 0 00-1.82.37 25.64 25.64 0 00-3.75 2.44 2.89 2.89 0 00-.87.94 2.58 2.58 0 00-.36 1.19 2.35 2.35 0 00.25 1.17 2.18 2.18 0 00.79.86c.93.71 1.92 1.34 2.91 2l1.45.94 1 .7a.72.72 0 00-.11.15c-.06.08-.1.15-.15.15a110.78 110.78 0 01-17 5.22 6.33 6.33 0 01-3.7-.62l-.49-.19c-2.06-.87-4.17-1.65-6.33-2.32a5.05 5.05 0 00-5.77 2.45 1.42 1.42 0 00-.09 1.65c.82 1.43 1.61 2.88 2.39 4.33.24.45.48.9.73 1.35.13.23.24.46.37.71l.18.36a1.41 1.41 0 01-.44.14l-4.53-.09-10-.26a8.12 8.12 0 01-5.57-2.76c-1.24-1.21-2.53-2.37-3.83-3.53l-1-.88a6.8 6.8 0 00-5.53-1.61 1.86 1.86 0 00-.84.17 1.89 1.89 0 00-.69.49 2 2 0 00-.4.74 1.84 1.84 0 00-.05.84 22.08 22.08 0 00.76 3.19c.11.41.23.82.35 1.24a22.34 22.34 0 01.58 2.24c.23 1.3-.2 1.65-1.36 1.06-4.67-2.35-9.39-4.76-14.1-7.27a8.4 8.4 0 01-3.36-3.95l-.87-1.68c-.58-1.12-1.16-2.24-1.78-3.34-1.52-2.66-3.91-3.59-6.8-3.37a1.93 1.93 0 00-1.28.44 1.77 1.77 0 00-.61 1.16c-.17 1.16-.26 2.35-.34 3.52v.75c-.06.73-.09 1.47-.13 2.32q0 .57-.06 1.23l-1.52-1.55-1.56-1.59-1.59-1.63c-1.67-1.7-3.35-3.41-5-5.16a43.21 43.21 0 01-3.47-4.16 5.94 5.94 0 01-.86-2.33c-.14-.74-.23-1.49-.33-2.23a25.7 25.7 0 00-.52-3.16 9 9 0 00-4.33-6.07c-1.41-.79-2.19-.7-3.25.28a14.5 14.5 0 00-3.26 5.82c-.1.27-.2.54-.38 1.05-.36-.65-.72-1.26-1.06-1.85-.51-.9-1-1.75-1.46-2.63-1.4-2.65-2.77-5.3-4.16-7.95l-.86-1.64a10.28 10.28 0 01-.77-7.37c.1-.45.22-.9.34-1.34a19.74 19.74 0 00.57-2.75c.3-2.76-1.25-5.09-3.46-7.09a2.77 2.77 0 00-3.46-.11 28.39 28.39 0 00-3.37 2.33c-.53.41-1 .87-1.57 1.37l-.76.7c-.13-.42-.24-.83-.33-1.25q-.83-6.29-1.64-12.55a25 25 0 01-.33-3.08c0-2.18 1.25-3.72 2.52-5.26v-.06a10.28 10.28 0 01.92-1.06c2-1.87 1.85-4.4 1.16-7a3.28 3.28 0 00-.57-1.32 4 4 0 00-2.58-1.6 3.35 3.35 0 00-1.45.07c-1.53.31-3 .74-4.48 1.17l-1.94.55-1.19.29c.19-.72.37-1.42.54-2.11.43-1.68.84-3.28 1.3-4.86.37-1.26.78-2.52 1.18-3.78.49-1.49 1-3 1.41-4.5a5.5 5.5 0 013.12-3.57 30.38 30.38 0 004-2.08c2.54-1.69 2.94-4.41 2.66-7.25-.12-1.15-1-1.73-2.33-1.75s-3 0-4.43 0H72.5c.3-.48.56-.93.81-1.37a14.54 14.54 0 011.27-2q3.6-4.65 7.51-9.19c1.47-1.71 3.79-2.25 6.32-2.43 2.82-.2 5.55-.61 7.29-2.61a9.6 9.6 0 001.8-3 1.76 1.76 0 00-.09-.93 2.27 2.27 0 00-.57-.86 15.16 15.16 0 00-3.47-1.92c-1.22-.48-2.48-.86-3.75-1.25-.58-.17-1.17-.35-1.75-.54l-.72-.26-.59-.22 1.72-.92c1.11-.61 2.16-1.18 3.22-1.72l3.61-1.77c2.4-1.16 4.79-2.33 7.16-3.6a7.21 7.21 0 014.39-.56c2.53.36 5 .61 7.58.73a8.1 8.1 0 007.11-3.67 1.4 1.4 0 00.1-.81 1.72 1.72 0 00-.38-.78c-1.67-1.28-3.41-2.5-5.16-3.72l-1.79-1.26c-.14-.11-.3-.21-.52-.35l-.35-.22 2.12-.36c1.43-.24 2.81-.48 4.18-.73l2.66-.48c3.05-.54 6.1-1.1 9.13-1.75a10 10 0 016.23.72l1.78.82c1.14.52 2.28 1.05 3.45 1.48a9.84 9.84 0 008.84-1.08c1.25-.74 1-1.91.64-3a10.05 10.05 0 00-3-4c-.33-.31-.65-.63-1-.94s-.55-.55-.81-.82l-.54-.56.13-.26 1.91.21 3.18.35 4.94.61c3.09.37 6.18.73 9.27 1a9.42 9.42 0 013.61 1 7.7 7.7 0 012.67 2.27 9.83 9.83 0 004.06 3.2 11.91 11.91 0 005.47 1c2.59-.05 4-1.18 3.79-3.29a38.74 38.74 0 00-.81-4.33c-.15-.67-.3-1.33-.43-2 0-.16-.07-.32-.11-.58v-.28l1.2.48 2 .82 3.94 1.63c2.32 1 4.62 1.91 6.94 2.78a15.67 15.67 0 017.66 6.54 7.56 7.56 0 011.19 2.58 3.14 3.14 0 00.82 1.53 3.88 3.88 0 001.59 1 25.67 25.67 0 003 1 4.46 4.46 0 001.71.09 4.8 4.8 0 001.65-.55 4 4 0 001.25-1.1 3.22 3.22 0 00.61-1.41c.25-1.11.49-2.21.73-3.32.17-.79.35-1.58.52-2.37 0-.09.06-.18.11-.33a3.26 3.26 0 00.13-.33c1 .86 1.94 1.62 2.83 2.39l3.18 2.77c1.91 1.67 3.82 3.35 5.76 5a7.18 7.18 0 012.69 5.8c-.07 1.92-.19 3.86-.3 5.8a1.51 1.51 0 00.21.88 4.48 4.48 0 00.81 1.09c2.87 2.64 5.75 2.44 8.73-.84a14 14 0 001.92-3c.24-.45.47-.89.72-1.32a13.31 13.31 0 00.55-1.3 14.32 14.32 0 011.39 1.91c.14.29.2.43.34.71 1.78 3.75 3.53 7.49 5.17 11.28.9 2.07.29 4.31-.6 6.54-.36.91-.72 1.82-1.13 2.71-1.36 2.91-.47 5.21 1.35 7.22a2.42 2.42 0 001 .62 3.41 3.41 0 001.21.18 3.78 3.78 0 001.27-.29 3.92 3.92 0 001.12-.7c1.35-1.19 2.69-2.39 4-3.62.5-.46 1-1 1.41-1.46l.6-.64.41.21c0 .5 0 1 .05 1.49 0 .9.06 1.81.06 2.72 0 1.43 0 2.87-.07 4.31 0 2-.08 4.1-.09 6.09 0 3.39-1.72 6.32-4.37 9a5.93 5.93 0 00-.43.44c-.14.15-.28.3-.43.44-2.46 2.27-2.57 4.78-2.18 7.29.31 2.07 2.25 2.78 4.54 1.84l4.8-1.94 1.5-.6.26.28c-.39 1-.78 2.06-1.16 3.08-1.09 2.93-2.18 5.87-3.32 8.79-.08.21-.17.43-.25.65a15 15 0 01-2.05 4.07z"/><path d="M156.44 355.24l.93 81.86c8.69.1 13 .1 21.72 0l.66-61.4c3.18 0 4.77 0 8-.11q-.57 30.7-1.13 61.4c8.69-.15 13-.27 21.72-.61l2.48-61.44 6.86 6.05-2.6 55.11c8.68-.4 13-.64 21.69-1.22l4.23-61.53q-11-9.64-22.08-19.19-31.25 1.26-62.48 1.08z" fill="#da4648"/><path class="cls-2" d="M149.13 355.13q-19.06-.33-38.12-1.33l-15.43 10.36 2.26 32.53 15.38 12.19c5.84.31 8.77.45 14.61.67.43 10.74.65 16.11 1.08 26.84 8.69.34 13 .46 21.72.61zm-22.78 17.7c-2.87-.11-4.31-.17-7.18-.3.36 7.63.54 11.44.91 19.07 2.81.13 4.22.19 7 .3-.27-7.63-.42-11.44-.73-19.07z"/></g></g></svg>